inDegrees=yes
name=IK-live
DataType=double
version=3
OpenSimVersion=4.1
endheader
time	pelvis_tilt	pelvis_list	pelvis_rotation	pelvis_tx	pelvis_ty	pelvis_tz	hip_flexion_r	hip_adduction_r	hip_rotation_r	knee_angle_r	ankle_angle_r	subtalar_angle_r	mtp_angle_r	hip_flexion_l	hip_adduction_l	hip_rotation_l	knee_angle_l	ankle_angle_l	subtalar_angle_l	mtp_angle_l	lumbar_extension	lumbar_bending	lumbar_rotation	neck_flex	neck_latbend	neck_rot	arm_flex_r	arm_add_r	arm_rot_r	elbow_flex_r	pro_sup_r	wrist_flex_r	wrist_dev_r	arm_flex_l	arm_add_l	arm_rot_l	elbow_flex_l	pro_sup_l	wrist_flex_l	wrist_dev_l
41.513733	191.2903935889714	905.4564656206801	-653.3433774895225	0.2341366603171506	0.04326292228651554	-1.326684523481465	-22.57117169827992	-1.591976316804377	-3.241458145969817	5.899560354604904	2.451982624139334	1.987972377786656	0	-24.74788768789517	-3.395140484746916	-11.58000132048591	9.793848132074926	-0.4439473045988533	4.250290820099795	0	-21.37711699760957	1.659277491615732	3.206407148933037	0	0	0	41.10994506976015	-15.04395621238304	5.130693451619198	70.90380677514923	44.95560381572523	0	4.999971503352929	43.52489961684148	-14.55919017033429	6.519458450647235	70.90050980883842	44.97345867378154	0	4.999971503352929
41.6816253	198.1131775832942	909.6877292868402	-630.202300229652	0.2341366603171506	0.04326292228651554	-1.326684523481465	-22.57117169827992	-1.591976316804377	-3.241458145969817	5.899560354604904	2.451982624139334	1.987972377786656	0	-24.74788768789517	-3.395140484746916	-11.58000132048591	9.793848132074926	-0.4439473045988533	4.250290820099795	0	-21.37711699760957	1.659277491615732	3.206407148933037	0	0	0	41.16757414147187	-15.04384242397286	5.114038256075507	70.92102200309812	44.95597280045742	0	4.999971897359096	43.57943403281669	-14.5603312935677	6.49827642397775	70.91773892525919	44.97367926436765	0	4.999971897359096
41.8480248	204.0337846563679	906.653437418399	-604.170898027774	0.2341366603171506	0.04326292228651554	-1.326684523481465	-22.57117169827992	-1.591976316804377	-3.241458145969817	5.899560354604904	2.451982624139334	1.987972377786656	0	-24.74788768789517	-3.395140484746916	-11.58000132048591	9.793848132074926	-0.4439473045988533	4.250290820099795	0	-21.37711699760957	1.659277491615732	3.206407148933037	0	0	0	41.22512888189488	-15.04372893012402	5.097437280482551	70.93816471317713	44.95633871850661	0	4.999972285943735	43.63389903308768	-14.56146946272878	6.47716353560894	70.93489546489374	44.97389802159595	0	4.999972285943735
42.0149421	209.3759113858536	901.8671624507078	-575.665889907359	0.2341366603171506	0.04326292228651554	-1.326684523481465	-22.57117169827992	-1.591976316804377	-3.241458145969817	5.899560354604904	2.451982624139334	1.987972377786656	0	-24.74788768789517	-3.395140484746916	-11.58000132048591	9.793848132074926	-0.4439473045988533	4.250290820099795	0	-21.37711699760957	1.659277491615732	3.206407148933037	0	0	0	41.28260941092542	-15.04361573007401	5.080890346832459	70.95523521299852	44.95670159536046	0	4.999972669181453	43.68829472615717	-14.56260468546521	6.45611955678467	70.9519797356094	44.97411496070371	0	4.999972669181453
42.1818463	212.1190988281547	896.4931405852773	-561.8645958589923	0.2341366603171506	0.04326292228651554	-1.326684523481465	-22.57117169827992	-1.591976316804377	-3.241458145969817	5.899560354604904	2.451982624139334	1.987972377786656	0	-24.74788768789517	-3.395140484746916	-11.58000132048591	9.793848132074926	-0.4439473045988533	4.250290820099795	0	-21.37711699760957	1.659277491615732	3.206407148933037	0	0	0	41.34001584817519	-15.04350282306228	5.064397277716333	70.97223380884274	44.95706145629483	0	4.999973047145817	43.74262122028272	-14.56373696940493	6.435144259535796	70.96899204394059	44.97433009680159	0	4.999973047145817
42.3457213	201.9268560626106	892.2813518035408	-551.4191997322448	0.2341366603171506	0.04326292228651554	-1.326684523481465	-22.57117169827992	-1.591976316804377	-3.241458145969817	5.899560354604904	2.451982624139334	1.987972377786656	0	-24.74788768789517	-3.395140484746916	-11.58000132048591	9.793848132074926	-0.4439473045988533	4.250290820099795	0	-21.37711699760957	1.659277491615732	3.206407148933037	0	0	0	41.3973483129723	-15.04339020833025	5.04795789632211	70.98916080566468	44.95741832637547	0	4.999973419909395	43.79687862347751	-14.56486632215608	6.414237416677167	70.98593269509496	44.97454344487467	0	4.999973419909395
42.4976265	198.199006910758	890.1235933703075	-543.8640360393817	0.2341366603171506	0.04326292228651554	-1.326684523481465	-22.57117169827992	-1.591976316804377	-3.241458145969817	5.899560354604904	2.451982624139334	1.987972377786656	0	-24.74788768789517	-3.395140484746916	-11.58000132048591	9.793848132074926	-0.4439473045988533	4.250290820099795	0	-21.37711699760957	1.659277491615732	3.206407148933037	0	0	0	41.45460692436232	-15.0432778851213	5.03157202643241	71.00601650709966	44.9577722304598	0	4.999973787543744	43.85106704351126	-14.56599275130713	6.39339880180462	71.00280199295942	44.97475501978344	0	4.999973787543744
42.664526	197.3673244361656	892.2142541545973	-533.3780025141954	0.2341366603171506	0.04326292228651554	-1.326684523481465	-22.57117169827992	-1.591976316804377	-3.241458145969817	5.899560354604904	2.451982624139334	1.987972377786656	0	-24.74788768789517	-3.395140484746916	-11.58000132048591	9.793848132074926	-0.4439473045988533	4.250290820099795	0	-21.37711699760957	1.659277491615732	3.206407148933037	0	0	0	41.51179180110926	-15.04316585268076	5.015239492422399	71.0228012154695	44.95812319319868	0	4.999974150119453	43.90518658791092	-14.56711626442688	6.37262818929204	71.01960024010627	44.97496483626494	0	4.999974150119453
42.8315361	189.6171508806098	892.6152055554767	-486.2660788849749	0.2341366603171506	0.04326292228651554	-1.326684523481465	-22.57117169827992	-1.591976316804377	-3.241458145969817	5.899560354604904	2.451982624139334	1.987972377786656	0	-24.74788768789517	-3.395140484746916	-11.58000132048591	9.793848132074926	-0.4439473045988533	4.250290820099795	0	-21.37711699760957	1.659277491615732	3.206407148933037	0	0	0	41.66602656746466	-15.04282088307591	4.962147194384047	71.08124405615095	44.95964942203653	0	4.999976071710988	44.05088957391187	-14.57057579824112	6.305062526565352	71.0780903263326	44.97587726326488	0	4.999976071710988
42.9978955	186.7536970014384	893.0702889491433	-469.5735950717996	0.2341366603171506	0.04326292228651554	-1.326684523481465	-22.57117169827992	-1.591976316804377	-3.241458145969817	5.899560354604904	2.451982624139334	1.987972377786656	0	-24.74788768789517	-3.395140484746916	-11.58000132048591	9.793848132074926	-0.4439473045988533	4.250290820099795	0	-21.37711699760957	1.659277491615732	3.206407148933037	0	0	0	41.72293939302683	-15.0427100336657	4.946040621817917	71.09771194461402	44.95998478317896	0	4.999976402856555	44.10475530665609	-14.57168744705147	6.284580147893276	71.09457149589333	44.97607775263128	0	4.999976402856555
43.1647784	185.2226375762677	894.6743552633297	-443.5472142830227	0.2341366603171506	0.04326292228651554	-1.326684523481465	-22.57117169827992	-1.591976316804377	-3.241458145969817	5.899560354604904	2.451982624139334	1.987972377786656	0	-24.74788768789517	-3.395140484746916	-11.58000132048591	9.793848132074926	-0.4439473045988533	4.250290820099795	0	-21.37711699760957	1.659277491615732	3.206407148933037	0	0	0	41.77977903881298	-15.04259947120872	4.929986468704771	71.11411048405149	44.96031735708909	0	4.999976729445563	44.15855266576528	-14.57279621809481	6.26416459399826	71.11098326013888	44.97627657570386	0	4.999976729445563
43.3296725	182.6952494067025	895.9419488770086	-432.7046473869906	0.2341366603171506	0.04326292228651554	-1.326684523481465	-22.57117169827992	-1.591976316804377	-3.241458145969817	5.899560354604904	2.451982624139334	1.987972377786656	0	-24.74788768789517	-3.395140484746916	-11.58000132048591	9.793848132074926	-0.4439473045988533	4.250290820099795	0	-21.37711699760957	1.659277491615732	3.206407148933037	0	0	0	41.83654562200008	-15.04248919496214	4.913984563088813	71.13043996837305	44.960647166932	0	4.999977051540704	44.2122817573988	-14.57390211882129	6.243815644069953	71.12732591322197	44.97647374633141	0	4.999977051540704
43.4816145	181.2503618420319	894.0948234850872	-426.2884188458817	0.2341366603171506	0.04326292228651554	-1.326684523481465	-22.57117169827992	-1.591976316804377	-3.241458145969817	5.899560354604904	2.451982624139334	1.987972377786656	0	-24.74788768789517	-3.395140484746916	-11.58000132048591	9.793848132074926	-0.4439473045988533	4.250290820099795	0	-21.37711699760957	1.659277491615732	3.206407148933037	0	0	0	41.89323925949011	-15.04237920418505	4.898034733591496	71.14670069021922	44.96097423568028	0	4.999977369203814	44.26594268747868	-14.57500515666175	6.223533078054818	71.14359974802514	44.97666927824766	0	4.999977369203814
43.6478593	181.1278486316247	894.2174280475479	-424.511946607518	0.2341366603171506	0.04326292228651554	-1.326684523481465	-22.57117169827992	-1.591976316804377	-3.241458145969817	5.899560354604904	2.451982624139334	1.987972377786656	0	-24.74788768789517	-3.395140484746916	-11.58000132048591	9.793848132074926	-0.4439473045988533	4.250290820099795	0	-21.37711699760957	1.659277491615732	3.206407148933037	0	0	0	41.94986006791101	-15.04226949813847	4.882136809409483	71.1628929409672	44.96129858611556	0	4.99997768249588	44.31953556169046	-14.57610533902782	6.203316676653301	71.15980505616646	44.97686318507215	0	4.99997768249588
43.814747	181.1278486316247	894.2174280475479	-424.511946607518	0.2341366603171506	0.04326292228651554	-1.326684523481465	-22.57117169827992	-1.591976316804377	-3.241458145969817	5.899560354604904	2.451982624139334	1.987972377786656	0	-24.74788768789517	-3.395140484746916	-11.58000132048591	9.793848132074926	-0.4439473045988533	4.250290820099795	0	-21.37711699760957	1.659277491615732	3.206407148933037	0	0	0	41.94986006791101	-15.04226949813847	4.882136809409483	71.1628929409672	44.96129858611556	0	4.99997768249588	44.31953556169046	-14.57610533902782	6.203316676653301	71.15980505616646	44.97686318507215	0	4.99997768249588
43.981629	182.2671898527527	895.6941606583451	-427.3448436868547	0.2341366603171506	0.04326292228651554	-1.326684523481465	-22.57117169827992	-1.591976316804377	-3.241458145969817	5.899560354604904	2.451982624139334	1.987972377786656	0	-24.74788768789517	-3.395140484746916	-11.58000132048591	9.793848132074926	-0.4439473045988533	4.250290820099795	0	-21.37711699760957	1.659277491615732	3.206407148933037	0	0	0	42.0064081636177	-15.04216007608532	4.866290620312553	71.17901701073656	44.96162024083015	0	4.999977991477048	44.37306048548392	-14.57720267331189	6.183166221316974	71.17594212800532	44.97705548031121	0	4.999977991477048
44.1463362	182.0641941790658	901.6582160039999	-462.8249709806902	0.2341366603171506	0.04326292228651554	-1.326684523481465	-22.57117169827992	-1.591976316804377	-3.241458145969817	5.899560354604904	2.451982624139334	1.987972377786656	0	-24.74788768789517	-3.395140484746916	-11.58000132048591	9.793848132074926	-0.4439473045988533	4.250290820099795	0	-21.37711699760957	1.659277491615732	3.206407148933037	0	0	0	42.06288366269292	-15.04205093729043	4.85049599664158	71.19507318839494	44.96193922222857	0	4.999978296206637	44.42651756407388	-14.57829716688725	6.163081494245705	71.19201125264806	44.97724617735899	0	4.999978296206637
44.2982551	187.0505422778072	896.4265624823362	-479.5697234600439	0.2341366603171506	0.04326292228651554	-1.326684523481465	-22.57117169827992	-1.591976316804377	-3.241458145969817	5.899560354604904	2.451982624139334	1.987972377786656	0	-24.74788768789517	-3.395140484746916	-11.58000132048591	9.793848132074926	-0.4439473045988533	4.250290820099795	0	-21.37711699760957	1.659277491615732	3.206407148933037	0	0	0	42.11928668094829	-15.04194208102055	4.834752769306469	71.21106176156388	44.96225555252914	0	4.999978596743145	44.47990690244102	-14.57938882710809	6.143062278384841	71.20801271795381	44.97743528949825	0	4.999978596743145
